<mxfile host="app.diagrams.net" agent="Mozilla/5.0 (Windows NT 10.0; Win64; x64) AppleWebKit/537.36 (KHTML, like Gecko) Chrome/126.0.0.0 Safari/537.36 Edg/126.0.0.0" version="24.7.7">
  <diagram name="Seite-1" id="8aurNUak3EroQm0NW41N">
    <mxGraphModel dx="1386" dy="793" grid="1" gridSize="10" guides="1" tooltips="1" connect="1" arrows="1" fold="1" page="1" pageScale="1" pageWidth="827" pageHeight="1169" math="0" shadow="0">
      <root>
        <mxCell id="0" />
        <mxCell id="1" parent="0" />
        <mxCell id="gKDyluKXKXdEFZLTfs7h-40" style="edgeStyle=orthogonalEdgeStyle;rounded=0;orthogonalLoop=1;jettySize=auto;html=1;entryX=0.5;entryY=0;entryDx=0;entryDy=0;" edge="1" parent="1" source="gKDyluKXKXdEFZLTfs7h-10" target="gKDyluKXKXdEFZLTfs7h-35">
          <mxGeometry relative="1" as="geometry" />
        </mxCell>
        <mxCell id="gKDyluKXKXdEFZLTfs7h-42" style="edgeStyle=orthogonalEdgeStyle;rounded=0;orthogonalLoop=1;jettySize=auto;html=1;" edge="1" parent="1" source="gKDyluKXKXdEFZLTfs7h-10" target="gKDyluKXKXdEFZLTfs7h-14">
          <mxGeometry relative="1" as="geometry" />
        </mxCell>
        <mxCell id="gKDyluKXKXdEFZLTfs7h-57" style="edgeStyle=orthogonalEdgeStyle;rounded=0;orthogonalLoop=1;jettySize=auto;html=1;" edge="1" parent="1" source="gKDyluKXKXdEFZLTfs7h-10" target="gKDyluKXKXdEFZLTfs7h-46">
          <mxGeometry relative="1" as="geometry" />
        </mxCell>
        <mxCell id="gKDyluKXKXdEFZLTfs7h-10" value="Startseite" style="swimlane;fontStyle=1;align=center;verticalAlign=top;childLayout=stackLayout;horizontal=1;startSize=26;horizontalStack=0;resizeParent=1;resizeParentMax=0;resizeLast=0;collapsible=1;marginBottom=0;whiteSpace=wrap;html=1;" vertex="1" parent="1">
          <mxGeometry x="40" y="40" width="280" height="200" as="geometry" />
        </mxCell>
        <mxCell id="gKDyluKXKXdEFZLTfs7h-11" value="index.html" style="text;strokeColor=none;fillColor=none;align=left;verticalAlign=top;spacingLeft=4;spacingRight=4;overflow=hidden;rotatable=0;points=[[0,0.5],[1,0.5]];portConstraint=eastwest;whiteSpace=wrap;html=1;" vertex="1" parent="gKDyluKXKXdEFZLTfs7h-10">
          <mxGeometry y="26" width="280" height="26" as="geometry" />
        </mxCell>
        <mxCell id="gKDyluKXKXdEFZLTfs7h-12" value="" style="line;strokeWidth=1;fillColor=none;align=left;verticalAlign=middle;spacingTop=-1;spacingLeft=3;spacingRight=3;rotatable=0;labelPosition=right;points=[];portConstraint=eastwest;strokeColor=inherit;" vertex="1" parent="gKDyluKXKXdEFZLTfs7h-10">
          <mxGeometry y="52" width="280" height="8" as="geometry" />
        </mxCell>
        <mxCell id="gKDyluKXKXdEFZLTfs7h-13" value="Grafik: logo, foto_baustelle, foto_produkt&lt;div&gt;&lt;br&gt;&lt;div&gt;a: Login,&amp;nbsp;&lt;/div&gt;&lt;div&gt;a: Kontakt,&amp;nbsp;&lt;/div&gt;&lt;div&gt;a: Impressum&lt;/div&gt;&lt;div&gt;&lt;br&gt;&lt;/div&gt;&lt;div&gt;Text: Infos zur Firma, Leistungen, Preview Kundenportal&lt;/div&gt;&lt;/div&gt;" style="text;strokeColor=none;fillColor=none;align=left;verticalAlign=top;spacingLeft=4;spacingRight=4;overflow=hidden;rotatable=0;points=[[0,0.5],[1,0.5]];portConstraint=eastwest;whiteSpace=wrap;html=1;" vertex="1" parent="gKDyluKXKXdEFZLTfs7h-10">
          <mxGeometry y="60" width="280" height="140" as="geometry" />
        </mxCell>
        <mxCell id="gKDyluKXKXdEFZLTfs7h-33" style="edgeStyle=orthogonalEdgeStyle;rounded=0;orthogonalLoop=1;jettySize=auto;html=1;entryX=0.5;entryY=0;entryDx=0;entryDy=0;" edge="1" parent="1" source="gKDyluKXKXdEFZLTfs7h-14" target="gKDyluKXKXdEFZLTfs7h-25">
          <mxGeometry relative="1" as="geometry" />
        </mxCell>
        <mxCell id="gKDyluKXKXdEFZLTfs7h-14" value="Loginseite" style="swimlane;fontStyle=1;align=center;verticalAlign=top;childLayout=stackLayout;horizontal=1;startSize=26;horizontalStack=0;resizeParent=1;resizeParentMax=0;resizeLast=0;collapsible=1;marginBottom=0;whiteSpace=wrap;html=1;" vertex="1" parent="1">
          <mxGeometry x="590" y="70" width="160" height="140" as="geometry" />
        </mxCell>
        <mxCell id="gKDyluKXKXdEFZLTfs7h-15" value="login.html" style="text;strokeColor=none;fillColor=none;align=left;verticalAlign=top;spacingLeft=4;spacingRight=4;overflow=hidden;rotatable=0;points=[[0,0.5],[1,0.5]];portConstraint=eastwest;whiteSpace=wrap;html=1;" vertex="1" parent="gKDyluKXKXdEFZLTfs7h-14">
          <mxGeometry y="26" width="160" height="26" as="geometry" />
        </mxCell>
        <mxCell id="gKDyluKXKXdEFZLTfs7h-16" value="" style="line;strokeWidth=1;fillColor=none;align=left;verticalAlign=middle;spacingTop=-1;spacingLeft=3;spacingRight=3;rotatable=0;labelPosition=right;points=[];portConstraint=eastwest;strokeColor=inherit;" vertex="1" parent="gKDyluKXKXdEFZLTfs7h-14">
          <mxGeometry y="52" width="160" height="8" as="geometry" />
        </mxCell>
        <mxCell id="gKDyluKXKXdEFZLTfs7h-17" value="&lt;div&gt;Grafik: Logo&lt;/div&gt;&lt;div&gt;&lt;br&gt;&lt;/div&gt;&lt;div&gt;a:Kontakt&lt;br&gt;&lt;/div&gt;&lt;div&gt;&lt;br&gt;&lt;/div&gt;Login-Formular" style="text;strokeColor=none;fillColor=none;align=left;verticalAlign=top;spacingLeft=4;spacingRight=4;overflow=hidden;rotatable=0;points=[[0,0.5],[1,0.5]];portConstraint=eastwest;whiteSpace=wrap;html=1;" vertex="1" parent="gKDyluKXKXdEFZLTfs7h-14">
          <mxGeometry y="60" width="160" height="80" as="geometry" />
        </mxCell>
        <mxCell id="gKDyluKXKXdEFZLTfs7h-34" style="edgeStyle=orthogonalEdgeStyle;rounded=0;orthogonalLoop=1;jettySize=auto;html=1;" edge="1" parent="1" source="gKDyluKXKXdEFZLTfs7h-25" target="gKDyluKXKXdEFZLTfs7h-29">
          <mxGeometry relative="1" as="geometry" />
        </mxCell>
        <mxCell id="gKDyluKXKXdEFZLTfs7h-39" style="edgeStyle=orthogonalEdgeStyle;rounded=0;orthogonalLoop=1;jettySize=auto;html=1;" edge="1" parent="1" source="gKDyluKXKXdEFZLTfs7h-25" target="gKDyluKXKXdEFZLTfs7h-35">
          <mxGeometry relative="1" as="geometry" />
        </mxCell>
        <mxCell id="gKDyluKXKXdEFZLTfs7h-52" style="edgeStyle=orthogonalEdgeStyle;rounded=0;orthogonalLoop=1;jettySize=auto;html=1;entryX=1;entryY=0.5;entryDx=0;entryDy=0;" edge="1" parent="1" source="gKDyluKXKXdEFZLTfs7h-25" target="gKDyluKXKXdEFZLTfs7h-44">
          <mxGeometry relative="1" as="geometry" />
        </mxCell>
        <mxCell id="gKDyluKXKXdEFZLTfs7h-25" value="Kundenbereich" style="swimlane;fontStyle=1;align=center;verticalAlign=top;childLayout=stackLayout;horizontal=1;startSize=26;horizontalStack=0;resizeParent=1;resizeParentMax=0;resizeLast=0;collapsible=1;marginBottom=0;whiteSpace=wrap;html=1;" vertex="1" parent="1">
          <mxGeometry x="590" y="250" width="160" height="190" as="geometry" />
        </mxCell>
        <mxCell id="gKDyluKXKXdEFZLTfs7h-26" value="customercenter.html" style="text;strokeColor=none;fillColor=none;align=left;verticalAlign=top;spacingLeft=4;spacingRight=4;overflow=hidden;rotatable=0;points=[[0,0.5],[1,0.5]];portConstraint=eastwest;whiteSpace=wrap;html=1;" vertex="1" parent="gKDyluKXKXdEFZLTfs7h-25">
          <mxGeometry y="26" width="160" height="26" as="geometry" />
        </mxCell>
        <mxCell id="gKDyluKXKXdEFZLTfs7h-27" value="" style="line;strokeWidth=1;fillColor=none;align=left;verticalAlign=middle;spacingTop=-1;spacingLeft=3;spacingRight=3;rotatable=0;labelPosition=right;points=[];portConstraint=eastwest;strokeColor=inherit;" vertex="1" parent="gKDyluKXKXdEFZLTfs7h-25">
          <mxGeometry y="52" width="160" height="8" as="geometry" />
        </mxCell>
        <mxCell id="gKDyluKXKXdEFZLTfs7h-28" value="&lt;div&gt;Grafik: Logo&lt;br&gt;&lt;/div&gt;&lt;div&gt;&lt;br&gt;&lt;/div&gt;&lt;div&gt;a: Logout&lt;/div&gt;&lt;div&gt;a: PersÃ¶nliche Daten&lt;/div&gt;&lt;div&gt;a: Kontakt&lt;/div&gt;&lt;div&gt;a: Impressum&lt;/div&gt;&lt;div&gt;&lt;br&gt;&lt;/div&gt;&lt;div&gt;Darstellung Leistungsdaten&lt;br&gt;&lt;/div&gt;" style="text;strokeColor=none;fillColor=none;align=left;verticalAlign=top;spacingLeft=4;spacingRight=4;overflow=hidden;rotatable=0;points=[[0,0.5],[1,0.5]];portConstraint=eastwest;whiteSpace=wrap;html=1;" vertex="1" parent="gKDyluKXKXdEFZLTfs7h-25">
          <mxGeometry y="60" width="160" height="130" as="geometry" />
        </mxCell>
        <mxCell id="gKDyluKXKXdEFZLTfs7h-53" style="edgeStyle=orthogonalEdgeStyle;rounded=0;orthogonalLoop=1;jettySize=auto;html=1;entryX=1;entryY=0.5;entryDx=0;entryDy=0;" edge="1" parent="1" source="gKDyluKXKXdEFZLTfs7h-29" target="gKDyluKXKXdEFZLTfs7h-44">
          <mxGeometry relative="1" as="geometry" />
        </mxCell>
        <mxCell id="gKDyluKXKXdEFZLTfs7h-29" value="Meine Daten" style="swimlane;fontStyle=1;align=center;verticalAlign=top;childLayout=stackLayout;horizontal=1;startSize=26;horizontalStack=0;resizeParent=1;resizeParentMax=0;resizeLast=0;collapsible=1;marginBottom=0;whiteSpace=wrap;html=1;" vertex="1" parent="1">
          <mxGeometry x="810" y="260" width="160" height="170" as="geometry" />
        </mxCell>
        <mxCell id="gKDyluKXKXdEFZLTfs7h-30" value="profile.html" style="text;strokeColor=none;fillColor=none;align=left;verticalAlign=top;spacingLeft=4;spacingRight=4;overflow=hidden;rotatable=0;points=[[0,0.5],[1,0.5]];portConstraint=eastwest;whiteSpace=wrap;html=1;" vertex="1" parent="gKDyluKXKXdEFZLTfs7h-29">
          <mxGeometry y="26" width="160" height="26" as="geometry" />
        </mxCell>
        <mxCell id="gKDyluKXKXdEFZLTfs7h-31" value="" style="line;strokeWidth=1;fillColor=none;align=left;verticalAlign=middle;spacingTop=-1;spacingLeft=3;spacingRight=3;rotatable=0;labelPosition=right;points=[];portConstraint=eastwest;strokeColor=inherit;" vertex="1" parent="gKDyluKXKXdEFZLTfs7h-29">
          <mxGeometry y="52" width="160" height="8" as="geometry" />
        </mxCell>
        <mxCell id="gKDyluKXKXdEFZLTfs7h-32" value="&lt;div&gt;Grafik: Logo&lt;br&gt;&lt;/div&gt;&lt;div&gt;&lt;br&gt;&lt;/div&gt;&lt;div&gt;a:Logout&lt;/div&gt;&lt;div&gt;a:Impressum&lt;/div&gt;&lt;div&gt;a:Kundenbereich&lt;/div&gt;&lt;div&gt;a:Kontakt&lt;/div&gt;&lt;div&gt;&lt;br&gt;&lt;/div&gt;&lt;div&gt;Formular&lt;/div&gt;Kundendaten bearbeiten" style="text;strokeColor=none;fillColor=none;align=left;verticalAlign=top;spacingLeft=4;spacingRight=4;overflow=hidden;rotatable=0;points=[[0,0.5],[1,0.5]];portConstraint=eastwest;whiteSpace=wrap;html=1;" vertex="1" parent="gKDyluKXKXdEFZLTfs7h-29">
          <mxGeometry y="60" width="160" height="110" as="geometry" />
        </mxCell>
        <mxCell id="gKDyluKXKXdEFZLTfs7h-55" style="edgeStyle=orthogonalEdgeStyle;rounded=0;orthogonalLoop=1;jettySize=auto;html=1;" edge="1" parent="1" source="gKDyluKXKXdEFZLTfs7h-35" target="gKDyluKXKXdEFZLTfs7h-43">
          <mxGeometry relative="1" as="geometry" />
        </mxCell>
        <mxCell id="gKDyluKXKXdEFZLTfs7h-35" value="Kontakformular" style="swimlane;fontStyle=1;align=center;verticalAlign=top;childLayout=stackLayout;horizontal=1;startSize=26;horizontalStack=0;resizeParent=1;resizeParentMax=0;resizeLast=0;collapsible=1;marginBottom=0;whiteSpace=wrap;html=1;" vertex="1" parent="1">
          <mxGeometry x="380" y="420" width="160" height="150" as="geometry" />
        </mxCell>
        <mxCell id="gKDyluKXKXdEFZLTfs7h-36" value="kontakt.html" style="text;strokeColor=none;fillColor=none;align=left;verticalAlign=top;spacingLeft=4;spacingRight=4;overflow=hidden;rotatable=0;points=[[0,0.5],[1,0.5]];portConstraint=eastwest;whiteSpace=wrap;html=1;" vertex="1" parent="gKDyluKXKXdEFZLTfs7h-35">
          <mxGeometry y="26" width="160" height="26" as="geometry" />
        </mxCell>
        <mxCell id="gKDyluKXKXdEFZLTfs7h-37" value="" style="line;strokeWidth=1;fillColor=none;align=left;verticalAlign=middle;spacingTop=-1;spacingLeft=3;spacingRight=3;rotatable=0;labelPosition=right;points=[];portConstraint=eastwest;strokeColor=inherit;" vertex="1" parent="gKDyluKXKXdEFZLTfs7h-35">
          <mxGeometry y="52" width="160" height="8" as="geometry" />
        </mxCell>
        <mxCell id="gKDyluKXKXdEFZLTfs7h-38" value="&lt;div&gt;&lt;div&gt;Grafik: Logo&lt;br&gt;&lt;/div&gt;&lt;div&gt;&lt;br&gt;&lt;/div&gt;&lt;div&gt;a: Startseite&lt;/div&gt;&lt;div&gt;&lt;div&gt;a: Impressum&lt;/div&gt;&lt;/div&gt;&lt;/div&gt;&lt;div&gt;&lt;br&gt;&lt;/div&gt;&lt;div&gt;Kontaktformular und Kontaktdaten&lt;br&gt;&lt;/div&gt;" style="text;strokeColor=none;fillColor=none;align=left;verticalAlign=top;spacingLeft=4;spacingRight=4;overflow=hidden;rotatable=0;points=[[0,0.5],[1,0.5]];portConstraint=eastwest;whiteSpace=wrap;html=1;" vertex="1" parent="gKDyluKXKXdEFZLTfs7h-35">
          <mxGeometry y="60" width="160" height="90" as="geometry" />
        </mxCell>
        <mxCell id="gKDyluKXKXdEFZLTfs7h-43" value="Impressum" style="swimlane;fontStyle=1;align=center;verticalAlign=top;childLayout=stackLayout;horizontal=1;startSize=26;horizontalStack=0;resizeParent=1;resizeParentMax=0;resizeLast=0;collapsible=1;marginBottom=0;whiteSpace=wrap;html=1;" vertex="1" parent="1">
          <mxGeometry x="380" y="660" width="160" height="150" as="geometry" />
        </mxCell>
        <mxCell id="gKDyluKXKXdEFZLTfs7h-44" value="impressum.html" style="text;strokeColor=none;fillColor=none;align=left;verticalAlign=top;spacingLeft=4;spacingRight=4;overflow=hidden;rotatable=0;points=[[0,0.5],[1,0.5]];portConstraint=eastwest;whiteSpace=wrap;html=1;" vertex="1" parent="gKDyluKXKXdEFZLTfs7h-43">
          <mxGeometry y="26" width="160" height="26" as="geometry" />
        </mxCell>
        <mxCell id="gKDyluKXKXdEFZLTfs7h-45" value="" style="line;strokeWidth=1;fillColor=none;align=left;verticalAlign=middle;spacingTop=-1;spacingLeft=3;spacingRight=3;rotatable=0;labelPosition=right;points=[];portConstraint=eastwest;strokeColor=inherit;" vertex="1" parent="gKDyluKXKXdEFZLTfs7h-43">
          <mxGeometry y="52" width="160" height="8" as="geometry" />
        </mxCell>
        <mxCell id="gKDyluKXKXdEFZLTfs7h-46" value="&lt;div&gt;Grafik: Logo&lt;br&gt;&lt;/div&gt;&lt;div&gt;&lt;br&gt;&lt;/div&gt;&lt;div&gt;a: Startseite&lt;/div&gt;&lt;div&gt;&lt;span style=&quot;background-color: initial;&quot;&gt;a: Kontakt&lt;/span&gt;&lt;br&gt;&lt;/div&gt;&lt;div&gt;&lt;br&gt;&lt;/div&gt;Daten zur Firma GeschÃ¤ftsfÃ¼hrung etc.&lt;div&gt;&lt;br&gt;&lt;/div&gt;" style="text;strokeColor=none;fillColor=none;align=left;verticalAlign=top;spacingLeft=4;spacingRight=4;overflow=hidden;rotatable=0;points=[[0,0.5],[1,0.5]];portConstraint=eastwest;whiteSpace=wrap;html=1;" vertex="1" parent="gKDyluKXKXdEFZLTfs7h-43">
          <mxGeometry y="60" width="160" height="90" as="geometry" />
        </mxCell>
        <mxCell id="gKDyluKXKXdEFZLTfs7h-56" style="edgeStyle=orthogonalEdgeStyle;rounded=0;orthogonalLoop=1;jettySize=auto;html=1;entryX=0.006;entryY=0.233;entryDx=0;entryDy=0;entryPerimeter=0;" edge="1" parent="1" source="gKDyluKXKXdEFZLTfs7h-10" target="gKDyluKXKXdEFZLTfs7h-38">
          <mxGeometry relative="1" as="geometry" />
        </mxCell>
        <mxCell id="gKDyluKXKXdEFZLTfs7h-58" style="edgeStyle=orthogonalEdgeStyle;rounded=0;orthogonalLoop=1;jettySize=auto;html=1;entryX=1.006;entryY=0.167;entryDx=0;entryDy=0;entryPerimeter=0;" edge="1" parent="1" source="gKDyluKXKXdEFZLTfs7h-29" target="gKDyluKXKXdEFZLTfs7h-38">
          <mxGeometry relative="1" as="geometry" />
        </mxCell>
      </root>
    </mxGraphModel>
  </diagram>
</mxfile>
